<?xml version="1.0" encoding="UTF-8" standalone="no"?>
<!-- Generator: Adobe Illustrator 22.0.0, SVG Export Plug-In . SVG Version: 6.00 Build 0)  -->

<svg
   xmlns:dc="http://purl.org/dc/elements/1.1/"
   xmlns:cc="http://creativecommons.org/ns#"
   xmlns:rdf="http://www.w3.org/1999/02/22-rdf-syntax-ns#"
   xmlns:svg="http://www.w3.org/2000/svg"
   xmlns="http://www.w3.org/2000/svg"
   xmlns:sodipodi="http://sodipodi.sourceforge.net/DTD/sodipodi-0.dtd"
   xmlns:inkscape="http://www.inkscape.org/namespaces/inkscape"
   version="1.1"
   id="Layer_1"
   x="0px"
   y="0px"
   viewBox="0 0 1920 1080"
   style="enable-background:new 0 0 1920 1080;"
   xml:space="preserve"
   sodipodi:docname="dead.svg"
   inkscape:version="0.92.4 (unknown)"><metadata
   id="metadata61"><rdf:RDF><cc:Work
       rdf:about=""><dc:format>image/svg+xml</dc:format><dc:type
         rdf:resource="http://purl.org/dc/dcmitype/StillImage" /></cc:Work></rdf:RDF></metadata><defs
   id="defs59" /><sodipodi:namedview
   pagecolor="#ffffff"
   bordercolor="#666666"
   borderopacity="1"
   objecttolerance="10"
   gridtolerance="10"
   guidetolerance="10"
   inkscape:pageopacity="0"
   inkscape:pageshadow="2"
   inkscape:window-width="1859"
   inkscape:window-height="1056"
   id="namedview57"
   showgrid="false"
   inkscape:zoom="0.16510417"
   inkscape:cx="960"
   inkscape:cy="540"
   inkscape:window-x="61"
   inkscape:window-y="24"
   inkscape:window-maximized="1"
   inkscape:current-layer="Layer_1" />
<style
   type="text/css"
   id="style2">
	.st0{fill:none;stroke:#FFFFFF;stroke-width:2;stroke-miterlimit:10;}
</style>
<path
   class="st0"
   d="M735.3,441l-74.9,27.1l-114.7,97.1c0,0-27.1,35-41.4,30.3c-14.3-4.8-17.5-17.5-17.5-23.9  c0-6.4-1.6-20.7-6.4-46.2c-4.8-25.5-4.8-35-4.8-47.8s-9.6-8-15.9-8c-6.4,0-8,14.3,1.6,20.7c9.6,6.4,3.2,19.1,3.2,25.5  c0,6.4-17.5-6.4-31.9-4.8c-14.3,1.6-35,52.6-46.2,68.5c-11.1,15.9-38.2,3.2-54.1-12.7s3.2-41.4,3.2-54.1s-9.6-9.6-23.9-6.4  c-14.3,3.2-9.6,46.2-9.6,46.2s11.1,17.5,3.2,25.5s-17.5,9.6-19.1,23.9c-1.6,14.3,3.2,28.7-6.4,20.7c-9.6-8-12.7-1.6-14.3,6.4  s17.5,25.5,8,31.9s-17.5,12.7-15.9,28.7s0,25.5,11.1,27.1"
   id="path4"
   style="stroke-width:12;stroke-miterlimit:10;stroke-dasharray:none" />
<path
   class="st0"
   d="M289.4,844c0,0-20.7-57.3-28.7-78c-8-20.7-28.7-43-19.1-65.3c9.6-22.3,1.6-33.4-11.1-43  c-12.7-9.6-14.3-49.4,6.4-76.4s35-70.1,47.8-81.2c12.7-11.1,36.6-14.3,54.1-11.1c17.5,3.2,20.7,6.4,30.3-4.8  c9.6-11.1,36.6-19.1,49.4-19.1s54.1-14.3,70.1-3.2s43,12.7,57.3,8c14.3-4.8,116.3-28.7,138.6-31.9c22.3-3.2,41.4-17.5,66.9-14.3  c25.5,3.2,47.8-4.8,47.8-14.3s17.5-35,43-28.7c25.5,6.4,62.1,27.1,62.1,27.1s98.7,33.4,138.6,20.7c39.8-12.7,81.2-14.3,81.2-14.3  s27.1-30.3,43-30.3s58.9-4.8,76.4,4.8c17.5,9.6,57.3,44.6,74.9,63.7c17.5,19.1,66.9,79.6,73.3,74.9s36.6,47.8,36.6,54.1  c0,6.4,8,17.5,23.9,15.9c15.9-1.6,41.4-3.2,52.6,6.4c11.1,9.6,73.3,31.9,109.9,46.2c36.6,14.3,52.6,25.5,52.6,25.5  s-114.7,20.7-129,25.5c-14.3,4.8-219.8,49.4-219.8,49.4s-141.7,14.3-286.7,19.1l-79.6-3.2c0,0-12.7,0-23.9-11.1  c-11.1-11.1-22.3-11.1-35,3.2c-12.7,14.3-62.1,9.6-62.1,9.6l-71.7-3.2c0,0-33.4-12.7-41.4,3.2c-8,15.9-12.7,17.5-27.1,14.3  c-14.3-3.2-78,15.9-78,15.9s-44.6-1.6-60.5-1.6s-28.7,11.1-23.9,20.7c4.8,9.6-36.6,1.6-52.6,1.6c-15.9,0-3.2,8-20.7,12.7  c-17.5,4.8-100.3,9.6-100.3,9.6h-43L289.4,844z"
   id="path6"
   style="stroke-width:12;stroke-miterlimit:10;stroke-dasharray:none" />
<path
   class="st0"
   d="M733.8,748.4c0,0,87.6-87.6,89.2-92.4s250,4.8,250,4.8l79.6-1.6c0,0,27.1-8,12.7-20.7c-14.3-12.7,27.1,0,51-6.4  c23.9-6.4,65.3-20.7,65.3-33.4c0-12.7,12.7-82.8,4.8-95.6c-8-12.7,12.7-22.3,19.1-20.7"
   id="path8"
   style="stroke-width:12;stroke-miterlimit:10;stroke-dasharray:none" />
<path
   class="st0"
   d="M1159,396.4c0,0,35,12.7,39.8,28.7s17.5,49.4,6.4,52.6c-11.1,3.2-12.7,3.2-36.6,19.1  c-23.9,15.9-52.6,8-76.4,6.4c-23.9-1.6-89.2,17.5-89.2,17.5"
   id="path10"
   style="stroke-width:12;stroke-miterlimit:10;stroke-dasharray:none" />
<path
   class="st0"
   d="M391.4,716.6c0,0,148.1-46.2,173.6-54.1s178.4-23.9,184.7-23.9c6.4,0,113.1-23.9,113.1-23.9l183.1-30.3  l138.6-4.8"
   id="path12"
   style="stroke-width:12;stroke-miterlimit:10;stroke-dasharray:none" />
<path
   class="st0"
   d="M865.9,641.7L993.3,629c0,0,92.4-20.7,114.7-14.3c22.3,6.4,58.9,6.4,58.9,6.4"
   id="path14"
   style="stroke-width:12;stroke-miterlimit:10;stroke-dasharray:none" />
<path
   class="st0"
   d="M404.1,678.3c0,0,100.3-6.4,132.2-31.9C568.1,621,603.2,576.4,678,570"
   id="path16"
   style="stroke-width:12;stroke-miterlimit:10;stroke-dasharray:none" />
<path
   class="st0"
   d="M738.5,566.9c0,0,43-52.6,70.1-52.6c27.1,0,41.4,0,41.4,0"
   id="path18"
   style="stroke-width:12;stroke-miterlimit:10;stroke-dasharray:none" />
<path
   class="st0"
   d="M633.4,638.5c0,0,82.8-47.8,86-58.9c3.2-11.1,3.2,46.2,3.2,46.2"
   id="path20"
   style="stroke-width:12;stroke-miterlimit:10;stroke-dasharray:none" />
<path
   class="st0"
   d="M770.4,617.8c0,0-12.7-17.5-19.1-22.3c-6.4-4.8,70.1-15.9,95.6-49.4"
   id="path22"
   style="stroke-width:12;stroke-miterlimit:10;stroke-dasharray:none" />
<path
   class="st0"
   d="M372.2,503.1c0,0,22.3-14.3,27.1-15.9c4.8-1.6,14.3,12.7,14.3,12.7"
   id="path24"
   style="stroke-width:12;stroke-miterlimit:10;stroke-dasharray:none" />
<path
   class="st0"
   d="M459.8,793c0,0,41.4-19.1,71.7-22.3c30.3-3.2,74.9-19.1,74.9-19.1l9.6,11.1l4.8-22.3l15.9-9.6  c0,0,35-31.9,15.9-57.3c-19.1-25.5,28.7,11.1,28.7,11.1s25.5,22.3,31.9,38.2"
   id="path26"
   style="stroke-width:12;stroke-miterlimit:10;stroke-dasharray:none" />
<path
   class="st0"
   d="M1318.2,522.3c0,0,17.5,23.9,22.3,49.4c4.8,25.5,25.5,33.4,31.9,36.6s60.5,11.1,60.5,11.1"
   id="path28"
   style="stroke-width:12;stroke-miterlimit:10;stroke-dasharray:none" />
<path
   class="st0"
   d="M1202,668.8c0,0,82.8,12.7,101.9,15.9c19.1,3.2,66.9-6.4,66.9-6.4"
   id="path30"
   style="stroke-width:12;stroke-miterlimit:10;stroke-dasharray:none" />
<path
   class="st0"
   d="M1243.4,388.5c0,0,25.5-19.1,35-27.1c9.6-8,23.9-28.7,35-20.7s11.1,27.1,11.1,27.1s-19.1,49.4-33.4,55.7"
   id="path32"
   style="stroke-width:12;stroke-miterlimit:10;stroke-dasharray:none" />
<path
   class="st0"
   d="M1358,487.2c0,0,49.4-6.4,60.5,1.6s15.9,22.3,6.4,25.5c-9.6,3.2-20.7,17.5-20.7,17.5l76.4,1.6  c0,0,57.3-6.4,57.3-44.6c0,0-6.4-36.6-55.7-28.7s-78,15.9-78,15.9l-33.4-6.4C1370.8,469.7,1359.6,468.1,1358,487.2z"
   id="path34"
   style="stroke-width:12;stroke-miterlimit:10;stroke-dasharray:none" />
<path
   class="st0"
   d="M1410.6,501.6c0,0-19.1,12.7-19.1,25.5"
   id="path36"
   style="stroke-width:12;stroke-miterlimit:10;stroke-dasharray:none" />
<line
   class="st0"
   x1="1358"
   y1="487.2"
   x2="1353.3"
   y2="493.6"
   id="line38"
   style="stroke-width:12;stroke-miterlimit:10;stroke-dasharray:none" />
<path
   class="st0"
   d="M893,402.8l44.6-27.1c0,0,9.6-8,17.5-6.4s65.9,4.8,66.9,4.8c3-0.2,6.4,8,0,9.6c-2.9,0.7-13.3,0.2-23.6-0.5  c-12.2-0.9-24.4-2.2-24.4-2.2l30,4l12,15c0,0,7.8,12.7-3,10c-8-2-7.5-14.9-17-15c-11.6-0.1-21.8-1.7-21.8-1.7L967,397  c0,0-0.7,5.4,3,11c2,3,16,4,22,4c6.4,0,9.3,2,9.3,5.2c0,3.2-8.1,9.4-28.3,8.8"
   id="path40"
   style="stroke-width:12;stroke-miterlimit:10;stroke-dasharray:none" />
<path
   class="st0"
   d="M1457,484c0,0,12,19,5,32"
   id="path42"
   style="stroke-width:12;stroke-miterlimit:10;stroke-dasharray:none" />
<path
   class="st0"
   d="M1476,483c0,0,10,14,3,32"
   id="path44"
   style="stroke-width:12;stroke-miterlimit:10;stroke-dasharray:none" />
<path
   class="st0"
   d="M1492,487c0,0,6,5,2,18"
   id="path46"
   style="stroke-width:12;stroke-miterlimit:10;stroke-dasharray:none" />
<path
   class="st0"
   d="M1257,378c0,0,9,3,12,10"
   id="path48"
   style="stroke-width:12;stroke-miterlimit:10;stroke-dasharray:none" />
<path
   class="st0"
   d="M1269.5,369c0,0,9.5,2,10.5,10"
   id="path50"
   style="stroke-width:12;stroke-miterlimit:10;stroke-dasharray:none" />
<path
   class="st0"
   d="M1280.5,360c0,0,3.5,3,5.5,7"
   id="path52"
   style="stroke-width:12;stroke-miterlimit:10;stroke-dasharray:none" />
<path
   class="st0"
   d="M1320.5,348c0,0,7.5,10,7.5,14s-3,35-12,44s-19,24-19,24"
   id="path54"
   style="stroke-width:12;stroke-miterlimit:10;stroke-dasharray:none" />
</svg>