<?xml version="1.0" encoding="UTF-8" standalone="no"?>
<!-- Generator: Adobe Illustrator 22.0.0, SVG Export Plug-In . SVG Version: 6.00 Build 0)  -->

<svg
   xmlns:dc="http://purl.org/dc/elements/1.1/"
   xmlns:cc="http://creativecommons.org/ns#"
   xmlns:rdf="http://www.w3.org/1999/02/22-rdf-syntax-ns#"
   xmlns:svg="http://www.w3.org/2000/svg"
   xmlns="http://www.w3.org/2000/svg"
   xmlns:sodipodi="http://sodipodi.sourceforge.net/DTD/sodipodi-0.dtd"
   xmlns:inkscape="http://www.inkscape.org/namespaces/inkscape"
   version="1.1"
   id="Layer_1"
   x="0px"
   y="0px"
   viewBox="0 0 1920 1080"
   style="enable-background:new 0 0 1920 1080;"
   xml:space="preserve"
   sodipodi:docname="glass.svg"
   inkscape:version="0.92.4 (unknown)"><metadata
   id="metadata69"><rdf:RDF><cc:Work
       rdf:about=""><dc:format>image/svg+xml</dc:format><dc:type
         rdf:resource="http://purl.org/dc/dcmitype/StillImage" /></cc:Work></rdf:RDF></metadata><defs
   id="defs67" /><sodipodi:namedview
   pagecolor="#ffffff"
   bordercolor="#666666"
   borderopacity="1"
   objecttolerance="10"
   gridtolerance="10"
   guidetolerance="10"
   inkscape:pageopacity="0"
   inkscape:pageshadow="2"
   inkscape:window-width="1859"
   inkscape:window-height="1056"
   id="namedview65"
   showgrid="false"
   inkscape:zoom="0.16510417"
   inkscape:cx="960"
   inkscape:cy="540"
   inkscape:window-x="61"
   inkscape:window-y="24"
   inkscape:window-maximized="1"
   inkscape:current-layer="Layer_1" />
<style
   type="text/css"
   id="style2">
	.st0{fill:none;stroke:#FFFFFF;stroke-width:4;stroke-miterlimit:10;}
</style>
<path
   class="st0"
   d="M826.3,437.7h215v-79h-212l-58-64c0,0-9-12-30-13s-401,0-401,0v230h380c0,0,38,0,52-10L826.3,437.7z"
   id="path4"
   style="stroke-width:12;stroke-miterlimit:10;stroke-dasharray:none" />
<path
   class="st0"
   d="M796.3,439.7l-48,42c0,0-7,9-30,9"
   id="path6"
   style="stroke-width:12;stroke-miterlimit:10;stroke-dasharray:none" />
<line
   class="st0"
   x1="907.3"
   y1="357.7"
   x2="907.3"
   y2="437.6"
   id="line8"
   style="stroke-width:12;stroke-miterlimit:10;stroke-dasharray:none" />
<line
   class="st0"
   x1="996.3"
   y1="357.7"
   x2="996.3"
   y2="438.2"
   id="line10"
   style="stroke-width:12;stroke-miterlimit:10;stroke-dasharray:none" />
<line
   class="st0"
   x1="1019.3"
   y1="357.7"
   x2="1019.3"
   y2="377.7"
   id="line12"
   style="stroke-width:12;stroke-miterlimit:10;stroke-dasharray:none" />
<line
   class="st0"
   x1="1019.3"
   y1="419.7"
   x2="1019.3"
   y2="437.6"
   id="line14"
   style="stroke-width:12;stroke-miterlimit:10;stroke-dasharray:none" />
<line
   class="st0"
   x1="721.3"
   y1="527.7"
   x2="351.3"
   y2="527.7"
   id="line16"
   style="stroke-width:12;stroke-miterlimit:10;stroke-dasharray:none" />
<line
   class="st0"
   x1="322.3"
   y1="289.7"
   x2="322.3"
   y2="505.7"
   id="line18"
   style="stroke-width:12;stroke-miterlimit:10;stroke-dasharray:none" />
<polygon
   class="st0"
   points="759.5,579.5 798.5,787.5 941.5,787.5 979.5,580.5 "
   id="polygon20"
   style="stroke-width:12;stroke-miterlimit:10;stroke-dasharray:none" />
<line
   class="st0"
   x1="787.5"
   y1="601.5"
   x2="943.5"
   y2="601.5"
   id="line22"
   style="stroke-width:12;stroke-miterlimit:10;stroke-dasharray:none" />
<line
   class="st0"
   x1="821.5"
   y1="638.5"
   x2="838.5"
   y2="754.5"
   id="line24"
   style="stroke-width:12;stroke-miterlimit:10;stroke-dasharray:none" />
<line
   class="st0"
   x1="871.5"
   y1="639.5"
   x2="871.5"
   y2="753.5"
   id="line26"
   style="stroke-width:12;stroke-miterlimit:10;stroke-dasharray:none" />
<line
   class="st0"
   x1="916.5"
   y1="641.5"
   x2="898.5"
   y2="754.5"
   id="line28"
   style="stroke-width:12;stroke-miterlimit:10;stroke-dasharray:none" />
<line
   class="st0"
   x1="799.5"
   y1="808.5"
   x2="937.5"
   y2="808.5"
   id="line30"
   style="stroke-width:12;stroke-miterlimit:10;stroke-dasharray:none" />
<line
   class="st0"
   x1="795"
   y1="681.5"
   x2="945"
   y2="681.5"
   id="line32"
   style="stroke-width:12;stroke-miterlimit:10;stroke-dasharray:none" />
<polygon
   class="st0"
   points="1005.5,579.5 1044.5,787.5 1187.5,787.5 1225.5,580.5 "
   id="polygon34"
   style="stroke-width:12;stroke-miterlimit:10;stroke-dasharray:none" />
<line
   class="st0"
   x1="1033.5"
   y1="601.5"
   x2="1189.5"
   y2="601.5"
   id="line36"
   style="stroke-width:12;stroke-miterlimit:10;stroke-dasharray:none" />
<line
   class="st0"
   x1="1067.5"
   y1="638.5"
   x2="1084.5"
   y2="754.5"
   id="line38"
   style="stroke-width:12;stroke-miterlimit:10;stroke-dasharray:none" />
<line
   class="st0"
   x1="1117.5"
   y1="639.5"
   x2="1117.5"
   y2="753.5"
   id="line40"
   style="stroke-width:12;stroke-miterlimit:10;stroke-dasharray:none" />
<line
   class="st0"
   x1="1162.5"
   y1="641.5"
   x2="1144.5"
   y2="754.5"
   id="line42"
   style="stroke-width:12;stroke-miterlimit:10;stroke-dasharray:none" />
<line
   class="st0"
   x1="1045.5"
   y1="808.5"
   x2="1183.5"
   y2="808.5"
   id="line44"
   style="stroke-width:12;stroke-miterlimit:10;stroke-dasharray:none" />
<line
   class="st0"
   x1="1041"
   y1="715.5"
   x2="1191"
   y2="715.5"
   id="line46"
   style="stroke-width:12;stroke-miterlimit:10;stroke-dasharray:none" />
<polygon
   class="st0"
   points="1251.5,579.5 1290.5,787.5 1433.5,787.5 1471.5,580.5 "
   id="polygon48"
   style="stroke-width:12;stroke-miterlimit:10;stroke-dasharray:none" />
<line
   class="st0"
   x1="1279.5"
   y1="601.5"
   x2="1435.5"
   y2="601.5"
   id="line50"
   style="stroke-width:12;stroke-miterlimit:10;stroke-dasharray:none" />
<line
   class="st0"
   x1="1313.5"
   y1="638.5"
   x2="1330.5"
   y2="754.5"
   id="line52"
   style="stroke-width:12;stroke-miterlimit:10;stroke-dasharray:none" />
<line
   class="st0"
   x1="1363.5"
   y1="639.5"
   x2="1363.5"
   y2="753.5"
   id="line54"
   style="stroke-width:12;stroke-miterlimit:10;stroke-dasharray:none" />
<line
   class="st0"
   x1="1408.5"
   y1="641.5"
   x2="1390.5"
   y2="754.5"
   id="line56"
   style="stroke-width:12;stroke-miterlimit:10;stroke-dasharray:none" />
<line
   class="st0"
   x1="1291.5"
   y1="808.5"
   x2="1429.5"
   y2="808.5"
   id="line58"
   style="stroke-width:12;stroke-miterlimit:10;stroke-dasharray:none" />
<line
   class="st0"
   x1="1287"
   y1="663.5"
   x2="1437"
   y2="663.5"
   id="line60"
   style="stroke-width:12;stroke-miterlimit:10;stroke-dasharray:none" />
<path
   class="st0"
   d="M1053.5,377.5c0,0,80,8,83,118v219.6h-39.4V489.5c0,0,0.4-62-43.6-70V377.5z"
   id="path62"
   style="stroke-width:12;stroke-miterlimit:10;stroke-dasharray:none" />
</svg>