<?xml version="1.0" encoding="UTF-8" standalone="no"?>
<!-- Generator: Adobe Illustrator 22.0.0, SVG Export Plug-In . SVG Version: 6.00 Build 0)  -->

<svg
   xmlns:dc="http://purl.org/dc/elements/1.1/"
   xmlns:cc="http://creativecommons.org/ns#"
   xmlns:rdf="http://www.w3.org/1999/02/22-rdf-syntax-ns#"
   xmlns:svg="http://www.w3.org/2000/svg"
   xmlns="http://www.w3.org/2000/svg"
   xmlns:sodipodi="http://sodipodi.sourceforge.net/DTD/sodipodi-0.dtd"
   xmlns:inkscape="http://www.inkscape.org/namespaces/inkscape"
   version="1.1"
   id="Layer_1"
   x="0px"
   y="0px"
   viewBox="0 0 1280 1024"
   style="enable-background:new 0 0 1280 1024;"
   xml:space="preserve"
   sodipodi:docname="man.svg"
   inkscape:version="0.92.4 (unknown)"><metadata
   id="metadata45"><rdf:RDF><cc:Work
       rdf:about=""><dc:format>image/svg+xml</dc:format><dc:type
         rdf:resource="http://purl.org/dc/dcmitype/StillImage" /></cc:Work></rdf:RDF></metadata><defs
   id="defs43" /><sodipodi:namedview
   pagecolor="#ffffff"
   bordercolor="#666666"
   borderopacity="1"
   objecttolerance="10"
   gridtolerance="10"
   guidetolerance="10"
   inkscape:pageopacity="0"
   inkscape:pageshadow="2"
   inkscape:window-width="1859"
   inkscape:window-height="1056"
   id="namedview41"
   showgrid="false"
   inkscape:zoom="0.65186406"
   inkscape:cx="852.22875"
   inkscape:cy="316.06611"
   inkscape:window-x="61"
   inkscape:window-y="24"
   inkscape:window-maximized="1"
   inkscape:current-layer="Layer_1" />
<style
   type="text/css"
   id="style2">
	.st0{fill:none;stroke:#000000;stroke-width:3;stroke-miterlimit:10;}
</style>
<path
   class="st0"
   d="M231,881l21.5-15.5c0,0,6-15-8-23s-36-51-36-51l-99-43c0,0-26-16-43-9s-19,53,15,78s112,65,121,67s31,5,34-15  s-22-40-43-46s-71-65-76-67"
   id="path4"
   style="stroke-width:7;stroke-miterlimit:10;stroke-dasharray:none" />
<path
   class="st0"
   d="M209,794.5c0,0,29.5-9,38.5-6s15-8,15-8s100-54,103-55s27-36,40-42s33-10,42-9s50-23,50-23s91-44,103-45  s3-16,11-17s43,5,43,5s36,12,40,14s21,0,35,13s34,33,44,38s43,21,43,21s4,6-1,12s-18,31-18,31s-2,28-3,31s-25,35-25,35s-3,66-4,71  s7,13,1,16s-6,3-6,3s-45-9-64,0s-50,19-80,11s-45,11-45,11s-12,30,11,42s47,8,63,13s81,26,118-8s29-53,10-63s-21-5-21-5"
   id="path6"
   style="stroke-width:7;stroke-miterlimit:10;stroke-dasharray:none" />
<path
   class="st0"
   d="M586.5,891.5c0,0,15-9,20-14s5-20,18-31s13-11,15-15s-4-7,5-26s2-21,17-27s17-16,30-22s13-11,13-11  s-47,35-46,31s3-18,3-18s-9-11-14-11s-31-10-59,3s-43,14-58,14s-33,1-48,12s-22,22-30,26s-32,10-43,11s-46,6-50,8s-85,42-85,42  l-19,7l-10-0.5"
   id="path8"
   style="stroke-width:7;stroke-miterlimit:10;stroke-dasharray:none" />
<path
   class="st0"
   d="M665.5,647.5c0,0-24,82-73.5,101.5"
   id="path10"
   style="stroke-width:7;stroke-miterlimit:10;stroke-dasharray:none" />
<path
   class="st0"
   d="M656.5,696.5c0,0,13-18,31-20s72,3,84,16"
   id="path12"
   style="stroke-width:7;stroke-miterlimit:10;stroke-dasharray:none" />
<path
   class="st0"
   d="M649.5,594.5c0,0,16-8,30-6s5-7,18-6s21,3,27-2s12-13,12-13h-13c0,0,8-13,10-21s4-30,18-35s19-31,28-33  s40-6,56-2s18-4,18-4s13,5,21,11s29,8,29,8s25-7,37-5s25-12,25-12s44,17,48,26s7,10,7,19s11,15,12,24s-2,25-2,25l2,47h-61l-26,35"
   id="path14"
   style="stroke-width:7;stroke-miterlimit:10;stroke-dasharray:none" />
<path
   class="st0"
   d="M796.5,732c0,0,8,9.5,13-1.5s-3-21,6-17s9,7,22,3s11-5,21-5s38-14,38-14"
   id="path16"
   style="stroke-width:7;stroke-miterlimit:10;stroke-dasharray:none" />
<path
   class="st0"
   d="M736.5,567.5c0,0,16-6,18-16s-1-13,7-21s12-14,12-14"
   id="path18"
   style="stroke-width:7;stroke-miterlimit:10;stroke-dasharray:none" />
<line
   class="st0"
   x1="723.5"
   y1="567.5"
   x2="709.5"
   y2="584"
   id="line20"
   style="stroke-width:7;stroke-miterlimit:10;stroke-dasharray:none" />
<path
   class="st0"
   d="M973.5,616c0,0,12,29.5,12,45.5s-7,25-13,26s-21-2-21-2l1,7c0,0-29,5-29,13s0,41,8,41s40-5,41-7s5-16,5-16  l-7-30"
   id="path22"
   style="stroke-width:7;stroke-miterlimit:10;stroke-dasharray:none" />
<path
   class="st0"
   d="M976,726.5c0,0,4.5-6,11.5-5s29-3,35-12s15-19,12-33s-4-60.5-4-60.5"
   id="path24"
   style="stroke-width:7;stroke-miterlimit:10;stroke-dasharray:none" />
<path
   class="st0"
   d="M985,671c0,0,14.5-12.5,28.5-6.5"
   id="path26"
   style="stroke-width:7;stroke-miterlimit:10;stroke-dasharray:none" />
<path
   class="st0"
   d="M870.5,480.5c0,0,3-16,7-28"
   id="path28"
   style="stroke-width:7;stroke-miterlimit:10;stroke-dasharray:none" />
<path
   class="st0"
   d="M903.5,491.5c0,0-13-8-19-15s-6-21-7-27s9-32,18-45s13-32,13-32s22,15,34,22s21,26,27,42s24,27,24,27  s28,6,26-36s-25-71-35-76s-27-15-53-6s-21,25-21,25"
   id="path30"
   style="stroke-width:7;stroke-miterlimit:10;stroke-dasharray:none" />
<path
   class="st0"
   d="M913,360c0,0,25.5,8.5,40.5,39.5s33,57,42,58"
   id="path32"
   style="stroke-width:7;stroke-miterlimit:10;stroke-dasharray:none" />
<path
   class="st0"
   d="M950.5,692.5l-6-39c0,0-7-12-15-15c0,0-5-33-13-38l-4-20c0,0-12-2-16,5l3,16c0,0-3,16,1,27s1,15-7,23  s19,118,19,118s28,13,50-8l-3-18"
   id="path34"
   style="stroke-width:7;stroke-miterlimit:10;stroke-dasharray:none" />
<path
   class="st0"
   d="M899.5,585.5c0,0,4,2,10-2"
   id="path36"
   style="stroke-width:7;stroke-miterlimit:10;stroke-dasharray:none" />
<path
   class="st0"
   d="M965.5,474.5c0,0,12-14,14.5-20.5"
   id="path38"
   style="stroke-width:7;stroke-miterlimit:10;stroke-dasharray:none" />
</svg>